<svg width="110" height="23" fill="none" xmlns="http://www.w3.org/2000/svg"><path fill-rule="evenodd" clip-rule="evenodd" d="m19.158 21.914-8.543-10.595 8.012-9.368H13.32L1.9 16.19v5.723h4.298v-6.132l1.575-1.857 6.095 7.989h5.29zm22.907 0 5.736-19.98h-4.828l-3.51 14.427-3.8-14.427h-3.356L28.472 16.36 24.928 1.934h-4.811l5.77 19.963h4.553l3.51-13.712 3.527 13.712h4.588v.017zm16.95.357c6.095 0 10.546-4.31 10.546-10.322 0-6.013-4.434-10.339-10.546-10.339-6.078 0-10.512 4.31-10.512 10.322 0 6.013 4.434 10.34 10.512 10.34zm0-3.781c-3.715 0-6.095-2.845-6.095-6.558 0-3.747 2.38-6.558 6.095-6.558s6.129 2.81 6.129 6.558c0 3.713-2.414 6.558-6.13 6.558zm30.132 3.424-4.537-7.597c2.174-.511 4.417-2.402 4.417-5.928 0-3.713-2.568-6.438-6.762-6.438H72.83v19.963h4.297V14.81h3.15l3.956 7.103h4.913zm-7.533-10.85h-4.503V5.68h4.503c1.73 0 3.013 1.022 3.013 2.691.017 1.687-1.284 2.691-3.013 2.691zM110 21.913l-8.56-10.595 8.012-9.368h-5.29l-7.122 8.925V1.934h-4.298v19.963h4.298v-6.132l1.575-1.857 6.095 7.989H110v.017z" fill="#111"/><path fill-rule="evenodd" clip-rule="evenodd" d="M6.198 6.09 1.9 11.285V4.437H0V1.848h6.198V6.09z" fill="#FFA800"/></svg>