<svg xmlns="http://www.w3.org/2000/svg" width="20" height="20" fill="none"><path d="M10 1.605c4.63 0 8.395 3.766 8.395 8.395S14.63 18.395 10 18.395A8.39 8.39 0 0 1 1.605 10 8.39 8.39 0 0 1 10 1.605z" stroke="#bbb" stroke-width=".71"/><path d="M9.152 13.288a1.76 1.76 0 0 0-.124.15.75.75 0 0 0-.093.18.64.64 0 0 0-.062.18c-.005.067-.005.133 0 .2a.83.83 0 0 0 .083.38c.094.25.298.45.558.54a1 1 0 0 0 .785 0c.26-.1.464-.3.558-.54a.97.97 0 0 0 .062-.38c.002-.266-.106-.52-.3-.7a1.06 1.06 0 0 0-1.461-.006l-.006.006zM9.886 5C8.778 5 7.754 5.57 7.2 6.5a.98.98 0 0 0 .318 1.38c.48.296 1.12.16 1.426-.307l.044-.073a1.04 1.04 0 0 1 .899-.5c.57 0 1.033.448 1.033 1s-.462 1-1.033 1-1.033.448-1.033 1v1c0 .552.462 1 1.033 1s1.033-.448 1.033-1v-.18c1.6-.565 2.44-2.285 1.856-3.843C12.333 5.798 11.18 5 9.886 5z" fill="#bbb"/></svg>
