<svg xmlns="http://www.w3.org/2000/svg" width="14" height="14" fill="none"><mask id="A" maskUnits="userSpaceOnUse" x="0" y="0" width="14" height="14" mask-type="alpha"><path d="M6.412.427a1 1 0 0 1 1.176 0l5.957 4.328a1 1 0 0 1 .363 1.118l-2.276 7.003a1 1 0 0 1-.951.691H3.318a1 1 0 0 1-.951-.691L.092 5.873a1 1 0 0 1 .363-1.118L6.412.427z" fill="#177de6"/></mask><g mask="url(#A)"><path d="M6.412.427a1 1 0 0 1 1.176 0l5.957 4.328a1 1 0 0 1 .363 1.118l-2.276 7.003a1 1 0 0 1-.951.691H3.318a1 1 0 0 1-.951-.691L.092 5.873a1 1 0 0 1 .363-1.118L6.412.427z" fill="#70a0fe"/><path d="M10.625 3.304a1 1 0 0 1 1.347-.024l1.669 1.468a1 1 0 0 1 .291 1.06l-2.297 7.069a1 1 0 0 1-.951.691h-7.49a1 1 0 0 1-.883-.53l-.308-.579a1 1 0 0 1 .196-1.197l8.426-7.958z" fill="#2666e2"/></g><path d="M6.821 3.363a.2.2 0 0 1 .359 0l1.097 2.222a.2.2 0 0 0 .151.109l2.452.356a.2.2 0 0 1 .111.341l-1.774 1.73a.2.2 0 0 0-.058.177l.419 2.442a.2.2 0 0 1-.29.211L7.093 9.799a.2.2 0 0 0-.186 0l-2.193 1.153a.2.2 0 0 1-.29-.211l.419-2.442a.2.2 0 0 0-.058-.177L3.01 6.392a.2.2 0 0 1 .111-.341l2.452-.356a.2.2 0 0 0 .151-.109l1.097-2.222z" fill="#fff"/></svg>