<svg xmlns="http://www.w3.org/2000/svg" width="13" height="16" fill="none"><path fill-rule="evenodd" d="M6.526 16c-3.07 0-5.568-2.51-5.568-5.598 0-2.146 1.556-4.805 3.01-6.326-.34 1.443-.433 2.97.577 4.176-.062-1.13.054-2.218.346-3.248.306-1.08.798-2.075 1.46-2.96C7.355.708 8.71 0 10.036 0 9.13.405 8.38 1.49 8.38 2.483c0 1.105.678 1.9 1.463 2.798.503.582 1.074 1.242 1.506 2.053.5.938.743 1.942.743 3.068 0 3.087-2.498 5.6-5.568 5.6zm-4.64-5.598c0-1.126.393-1.9.89-2.903l.01-.02.168-.336c.4 1.412 1.4 2.308 2.74 2.862l-.122-.81c-.418-2.77.37-4.778 1.102-5.974a7.74 7.74 0 0 1 .796-1.079c-.012.114-.018.23-.018.345 0 1.45.82 2.4 1.69 3.405.995 1.15 2.023 2.34 2.023 4.514 0 2.575-2.08 4.67-4.64 4.67s-4.64-2.095-4.64-4.67z" fill="#ff7600"/></svg>