<svg width="12" height="12" viewBox="0 0 12 12" fill="none" xmlns="http://www.w3.org/2000/svg">
	<path fill-rule="evenodd" clip-rule="evenodd" d="M12 6C12 9.31371 9.31371 12 6 12C2.68629 12 0 9.31371 0 6C0 2.68629 2.68629 0 6 0C9.31371 0 12 2.68629 12 6ZM3.64645 3.64645C3.84171 3.45118 4.15829 3.45118 4.35355 3.64645L6 5.29289L7.64645 3.64645C7.84171 3.45118 8.15829 3.45118 8.35355 3.64645C8.54882 3.84171 8.54882 4.15829 8.35355 4.35355L6.70711 6L8.35355 7.64645C8.54882 7.84171 8.54882 8.15829 8.35355 8.35355C8.15829 8.54882 7.84171 8.54882 7.64645 8.35355L6 6.70711L4.35355 8.35355C4.15829 8.54882 3.84171 8.54882 3.64645 8.35355C3.45118 8.15829 3.45118 7.84171 3.64645 7.64645L5.29289 6L3.64645 4.35355C3.45118 4.15829 3.45118 3.84171 3.64645 3.64645Z" fill="#A3A3A3"/>
</svg>
