<svg width="18" height="18" viewBox="0 0 18 18" fill="none" xmlns="http://www.w3.org/2000/svg">
<path d="M17.1482 0.851766C16.6792 0.382745 15.9188 0.382745 15.4498 0.851766L9 7.30152L2.55024 0.851766C2.08122 0.382745 1.32079 0.382745 0.851767 0.851766C0.382746 1.32079 0.382745 2.08122 0.851766 2.55024L7.30152 9L0.851766 15.4498C0.382744 15.9188 0.382745 16.6792 0.851766 17.1482C1.32079 17.6173 2.08122 17.6173 2.55024 17.1482L9 10.6985L15.4498 17.1482C15.9188 17.6173 16.6792 17.6173 17.1482 17.1482C17.6173 16.6792 17.6173 15.9188 17.1482 15.4498L10.6985 9L17.1482 2.55024C17.6173 2.08122 17.6173 1.32079 17.1482 0.851766Z" fill="#A3A3A3"/>
</svg>
