<svg width="11" height="22" viewBox="0 0 11 22" fill="none" xmlns="http://www.w3.org/2000/svg">
<path d="M0 11H2V13H0V11Z" fill="#C4C4C4"/>
<path d="M3 11H11V13H3V11Z" fill="#C4C4C4"/>
<path d="M0 14H2V16H0V14Z" fill="#C4C4C4"/>
<path d="M3 14H11V16H3V14Z" fill="#C4C4C4"/>
<path d="M0 17H2V19H0V17Z" fill="#C4C4C4"/>
<path d="M3 17H11V19H3V17Z" fill="#C4C4C4"/>
<path d="M0 20H2V22H0V20Z" fill="#C4C4C4"/>
<path d="M3 20H11V22H3V20Z" fill="#C4C4C4"/>
<path d="M0 0H2V2H0V0Z" fill="#177DE5"/>
<path d="M3 0H11V2H3V0Z" fill="#177DE5"/>
<path d="M0 3H2V5H0V3Z" fill="#177DE5"/>
<path d="M3 3H11V5H3V3Z" fill="#177DE5"/>
<path d="M0 6H2V8H0V6Z" fill="#177DE5"/>
<path d="M3 6H11V8H3V6Z" fill="#177DE5"/>
<path d="M0 9H2V11H0V9Z" fill="#177DE5"/>
<path d="M3 9H11V11H3V9Z" fill="#177DE5"/>
</svg>
