<svg xmlns="http://www.w3.org/2000/svg" width="65" height="69" fill="none"><path d="M23.46 31.256a14.46 14.46 0 0 1-7.533-3.867 14.14 14.14 0 0 1-4.012-7.382 14.04 14.04 0 0 1 .903-8.333 14.27 14.27 0 0 1 5.509-6.385c2.446-1.534 5.303-2.304 8.198-2.2s5.693 1.046 8.03 2.73 4.103 4.027 5.07 6.72a14.02 14.02 0 0 1 .35 8.372m-18.48 3.487c-1.248-.778-2.27-1.862-2.965-3.147a8.31 8.31 0 0 1-1-4.183 8.33 8.33 0 0 1 1.228-4.128 8.48 8.48 0 0 1 3.138-2.991 8.62 8.62 0 0 1 4.226-1.069 8.61 8.61 0 0 1 4.205 1.133 8.45 8.45 0 0 1 3.084 3.034c.744 1.258 1.144 2.685 1.16 4.142" stroke="#16d91c" stroke-width="2" stroke-linecap="round"/><path d="M61.135 58.206l-4.52-5.97L41.043 59l1.9 7.145 18.18-7.94zm-5.7-3.374c1.118.053 1.98.98 1.928 2.067s-1.002 1.927-2.12 1.874-1.98-.978-1.928-2.067 1.002-1.927 2.12-1.874zM23.337 18.318l.278.723a9.52 9.52 0 0 0 .243.64l.607 1.663a9.16 9.16 0 0 0 .281.731l.228.567c.036.1.145.4.243.622a21.18 21.18 0 0 1 .624 1.766 5.26 5.26 0 0 0 .243.603l.302.74.28.73.208.53a14.19 14.19 0 0 0 .26.67l.463 1.28.43 1.148a5.38 5.38 0 0 1 .241.603 18.21 18.21 0 0 0 .61 1.717 7.88 7.88 0 0 1 .26.669 7.08 7.08 0 0 0 .256.65c.157.34.45 1.25.6 1.835.1.412.694 1.6.227 1.862-.17.092-.433-.01-.947-.367-.94-.654-1.2-.814-2-1.24l-.743-.437c-.428-.3-.78-.484-1.964-1.084-1.157-.586-2.672-.474-3.552.264-1.54 1.3-1.656 3.155-.292 4.722l.447.558c.136.2.856.908 1.304 1.282.13.108.548.503.93.877l1.014.902a4.6 4.6 0 0 1 .6.5c.382.353.605.537.86.706.115.076.392.303.616.504l.624.513a10.1 10.1 0 0 1 .557.425c.333.273.694.534 1.38 1.003l.634.48c.27.227.753.573 1.36.97l1.182.805a9.13 9.13 0 0 0 .714.437l.7.43c.735.535 1.3.87 2.976 1.734.596.3.772.45 1.018.814l.452.607c.338.424 1.178 2.076 1.412 2.78.193.58.73 1.674.73 1.674L55.9 50.78s-1.56-4.104-.594-6.073a23.06 23.06 0 0 0-.422-9.854l-.27-.695-.3-.75a6.13 6.13 0 0 1-.243-.64 6.03 6.03 0 0 0-.255-.658c-.097-.21-.293-.738-.437-1.17l-.415-1.12a14.81 14.81 0 0 1-.415-1.124c-.7-2.15-1.498-3.24-2.645-3.66-1.314-.482-2.248-.23-3.406.915-.784.776-.927.792-1.196.135-1.002-2.443-4.038-2.8-5.638-.645-.4.55-.47.527-1.06-.37-1.012-1.543-2.582-2.108-4.065-1.463-.502.218-.885.56-1.265 1.127-.133.2-.246.325-.335.374l-.134.073-.136-.073c-.17-.092-.35-.422-.538-.987-.073-.22-.2-.55-.285-.732a11.23 11.23 0 0 1-.359-.982l-.436-1.187-.33-.846a6.91 6.91 0 0 0-.244-.622c-.08-.17-.262-.665-.406-1.097l-.416-1.133-.253-.64-.284-.73c-1.702-4.06-7.512-1.934-5.8 2.165z" fill-rule="evenodd" fill="#457edb"/></svg>
