<svg xmlns="http://www.w3.org/2000/svg" width="65" height="64" fill="none"><g clip-path="url(#B)"><g fill="#457edb"><path d="M64.064 32.09c-.533-.52-1.212-.237-1.842-.426-.05 0-.097-.047-.097-.047-.29-.142-.582-.38-.873-.52-.582-.237-1.31-.142-1.842.19-.63.38-1.067.947-1.65 1.373l-1.018.9-2.715 2.273c-1.212.994-2.473 2.273-4.024 2.652-.097 0-.097.142-.048.19.533.473.873.994.97 1.6.29 1.468-.824 2.84-2.085 3.362-.727.33-1.55.426-2.327.426-.533 0-1.067-.047-1.55-.095l-3.49-.568-3.442-.568c-2.715-.33-4.945-.142-6.74.52a.51.51 0 0 1-.63-.284c-.097-.237.05-.52.29-.616 1.988-.7 4.315-.9 7.224-.568l3.54.568 3.442.568c1.164.142 2.327.19 3.394-.237.873-.38 1.697-1.326 1.503-2.32-.34-1.657-2.764-2.036-4.17-2.225-3.83-.52-7.564-1.657-11.248-2.983l-1.503-.568c-4.315-1.657-9.31-2.65-13.818-1.136-3.055 1.042-4.994 3.693-7.806 5.066l-3.25 1.42 5.576 10.748c.582-.38 1.115-.758 1.503-.947 1.94-.947 4.073-1.562 6.255-1.8 4.8-.52 9.164 1.326 13.72 2.604 1.697.474 3.49.758 5.285.663 3.006-.095 4.46-1.468 4.945-1.704 2.376-1.23 5.576-2.936 7.612-3.835 2.327-.994 3.88-1.752 6.012-4.26 1.6-1.847 2.958-3.835 4.364-5.87.533-.758 1.212-1.562 1.164-2.51-.194-.237-.34-.758-.63-1.042z"/><path fill-rule="evenodd" d="M7.5 56l5.51-3.93L6.56 39.617.5 42l7 14zm3.23-4.782c0 .915-.76 1.657-1.697 1.657s-1.697-.742-1.697-1.657.76-1.657 1.697-1.657 1.697.742 1.697 1.657z"/></g><path d="M41.292 28a1 1 0 0 1-1-1v-1.896a1 1 0 0 0-1-1H38.5a1 1 0 0 1-1-1V21.57a1 1 0 0 1 1-1h.792a1 1 0 0 0 1-1v-.84a1 1 0 0 0-1-1H38.5a1 1 0 0 1-1-1v-2.515a1 1 0 0 1 1-1h.792a1 1 0 0 0 1-1V3a1 1 0 0 1 1-1h6.958c3.21 0 5.55.68 7.016 2.04 1.49 1.36 2.234 3.23 2.234 5.608a8.92 8.92 0 0 1-.907 3.969c-.605 1.238-1.617 2.234-3.037 2.986-1.396.753-3.304 1.13-5.724 1.13h-1.27a1 1 0 0 0-1 1v.84a1 1 0 0 0 1 1h3.375a1 1 0 0 1 1 1v1.532a1 1 0 0 1-1 1h-3.375a1 1 0 0 0-1 1V27a1 1 0 0 1-1 1h-3.27zm4.27-15.784a1 1 0 0 0 1 1h.745c1.49 0 2.664-.267 3.525-.8.884-.534 1.326-1.396 1.326-2.585 0-2.21-1.396-3.314-4.188-3.314h-1.408a1 1 0 0 0-1 1v4.7z" fill="#04c40b"/><g filter="url(#A)"><circle cx="47.5" cy="15" r="12" fill="#00ff09" fill-opacity=".3"/></g></g><defs><filter id="A" x="-44.5" y="-77" width="184" height="184" filterUnits="userSpaceOnUse" color-interpolation-filters="sRGB"><feFlood flood-opacity="0"/><feBlend in="SourceGraphic"/><feGaussianBlur stdDeviation="40"/></filter><clipPath id="B"><path fill="#fff" transform="translate(.5)" d="M0 0h64v64H0z"/></clipPath></defs></svg>
