<svg xmlns="http://www.w3.org/2000/svg" xmlns:xlink="http://www.w3.org/1999/xlink" width="84" height="29" fill="none"><use xlink:href="#C" fill="#fff"/><g fill="#bbb"><path d="M80.167 12.22c-.012 0-.026.012-.026.026v.237c0 .014.014.026.026.026h.44v1.497c0 .014.01.026.026.026h.246c.014 0 .028-.012.028-.026V12.51h.437c.014 0 .026-.012.026-.026v-.237c0-.014-.012-.026-.026-.026m-19.36-2.248c0 .485.38.863.864.863s.865-.378.865-.863-.382-.863-.865-.863-.864.38-.864.863zm4.528 2.833l-.054.03-.1-.3c-.038-.105-.137-.175-.246-.175h-.557c-.143 0-.26.117-.26.263v7.134c0 .143.118.263.26.263h.998c.145 0 .263-.12.263-.263v-5.775l.027-.012c.412-.215.827-.346 1.636-.346.972 0 1.167.364 1.167.954v5.178a.26.26 0 0 0 .26.26h1a.26.26 0 0 0 .26-.26V14.62c0-1.573-.928-2.403-2.688-2.403-.652 0-1.3.2-1.956.597m-2.917-.198c0-.146-.117-.263-.26-.263h-.972c-.143 0-.26.117-.26.263v7.134a.26.26 0 0 0 .26.26h.97c.146 0 .263-.117.263-.26m-3.32-10.703c0-.145-.117-.263-.263-.263h-.966c-.147 0-.265.118-.265.263V19.75c0 .143.117.26.263.26h.968c.145 0 .263-.117.263-.26M45.32 15.507c.074-.982.332-1.9 1.713-1.9 1.187 0 1.417.638 1.445 1.892l.002.056h-3.165l.004-.057zm-1.544.676c0 .982 0 3.972 3.258 3.972.976 0 1.62-.06 2.46-.33.1-.03.155-.135.155-.237v-.803c0-.1-.044-.17-.117-.22s-.16-.04-.246-.022c-.73.153-1.312.203-2.252.203-1.355 0-1.622-.86-1.707-1.8l-.006-.058h4.425c.146 0 .263-.117.263-.26v-.457c0-1.922-.23-3.97-2.974-3.97-3.258-.002-3.258 3-3.258 3.97"/><path d="M52.723 15.507c.073-.982.332-1.9 1.715-1.9 1.185 0 1.415.638 1.44 1.892l.002.056h-3.16l.004-.057zm-1.544.676c0 .982 0 3.972 3.26 3.972.976 0 1.618-.06 2.46-.33.097-.03.155-.135.155-.237v-.803a.26.26 0 0 0-.119-.219c-.073-.05-.16-.04-.244-.022-.732.153-1.312.203-2.252.203-1.358 0-1.624-.86-1.7-1.8l-.006-.058h4.427a.26.26 0 0 0 .26-.26v-.457c0-1.922-.23-3.97-2.972-3.97-3.26-.002-3.26 3-3.26 3.97m22.84-.675c.073-.982.332-1.9 1.713-1.9 1.187 0 1.417.638 1.443 1.892l.002.056h-3.163l.004-.057zm-1.543.676c0 .982 0 3.972 3.256 3.972.976 0 1.618-.06 2.463-.33.095-.03.153-.135.153-.237v-.803a.26.26 0 0 0-.117-.219c-.074-.05-.16-.04-.246-.022-.732.153-1.3.203-2.252.203-1.358 0-1.622-.86-1.708-1.8l-.008-.058h4.427a.26.26 0 0 0 .26-.26v-.457c0-1.922-.23-3.97-2.972-3.97-3.26-.002-3.256 3-3.256 3.97M38.948 14.93c1.542 0 2.1.47 2.1 1.8 0 .884-.253 1.8-2.117 1.8h-2.244v-3.58h2.272v.002zm-.116-4.68c1.624 0 1.847.772 1.847 1.603 0 1.06-.566 1.576-1.73 1.576h-2.272v-3.18h2.157zM35.38 8.746a.28.28 0 0 0-.28.281V19.73c0 .155.125.282.28.282h3.484c2.5 0 3.862-1.17 3.862-3.292 0-1.155-.556-2.14-1.5-2.636 0 0-.024-.012-.046-.026l.042-.027c.722-.525 1.135-1.318 1.135-2.178 0-1.16-.467-3.105-3.606-3.105m44.21 3.472c-.012 0-.02.008-.024.016l-.493 1.15-.5-1.15c-.004-.008-.014-.016-.024-.016h-.296c-.016 0-.028.012-.028.026v1.76c0 .014.01.026.028.026h.24c.022-.012.026-.018.026-.028l-.012-1.234.44 1.012c.002.01.012.016.024.016h.187c.01 0 .02-.006.022-.016l.438-1.012L83 14.002c0 .01.002.016.006.02s.012.008.02.008h.24c.014 0 .028-.012.028-.026v-1.76c0-.014-.012-.026-.028-.026"/></g><mask id="A" mask-type="alpha" maskUnits="userSpaceOnUse" x="0" y="0" width="30" height="29"><use xlink:href="#C" fill="url(#B)"/></mask><g mask="url(#A)"><path d="M29.303 11.45H.707v6.12h28.597v-6.12zm0 12.24H.707v5.105h28.597v-5.105zm0-18.357H.707V.202h28.597V5.33z" fill="#bbb"/></g><path fill-rule="evenodd" d="M1.037 17.57c-.216-.99-.33-2.016-.33-3.07 0-1.047.113-2.068.326-3.05H28.98a14.33 14.33 0 0 1 .324 2.808v.487a14.33 14.33 0 0 1-.328 2.825H1.037zM15.03.202c4.398.007 8.33 2 10.95 5.128H4.033A14.27 14.27 0 0 1 14.985.202h.044z" fill="#bbb"/><defs><linearGradient id="B" x1="0.707" y1="14.51" x2="29.303" y2="14.51" gradientUnits="userSpaceOnUse"><stop stop-color="#faa61a"/><stop offset="1" stop-color="#ffe100"/></linearGradient><path id="C" d="M.707 14.5a14.3 14.3 0 0 0 28.599 0A14.3 14.3 0 0 0 15.007.202a14.3 14.3 0 0 0-14.3 14.298z"/></defs></svg>
