<svg xmlns="http://www.w3.org/2000/svg" width="71" height="29" fill="none"><path d="M1.853 14.48c0 6.996 14.05 12.808 33.527 12.808s33.517-5.81 33.517-12.808S54.848 1.67 35.38 1.67 1.853 7.482 1.853 14.48z" fill="#bbb"/><path d="M24.08 8.912c-.15.306-.15.603-.15.91v3.83l2.47-3.3c.35-.47.78-1.134.78-1.44h6.56c-.45.306-.95.858-1.36 1.37l-2.4 2.993 3.42 5.31c.22.327.46.633.74.91h-7.55c0-.306-.3-.93-.6-1.42l-2.05-3.176v3.687c0 .306 0 .603.15.91h-6.29c.15-.306.15-.603.15-.91V9.82c0-.306 0-.603-.15-.91h6.29zm23.288 0H35.23c.15.306.15.603.15.91v8.763c0 .306 0 .603-.15.91h12.14v-2.93c-.3.153-.6.153-.9.153h-5.11v-1.39h4.91V13.09h-4.91v-1.4h5.11c.3 0 .6 0 .9.143v-2.92zm16.82 9.672c.1.337.27.643.5.91h-6.58c.03-.306-.08-.603-.2-.91l-.24-.603-.06-.153h-3.8l-.06.164-.2.603c-.1.306-.2.603-.17.91h-5.2a2.7 2.7 0 0 0 .47-.909l3.1-8.763c.1-.306.22-.603.18-.91h8.77c-.08.306.08.603.2.91l3.3 8.753zm-7.42-2.993l-.92-2.45c-.08-.225-.15-.46-.2-.694-.04.235-.1.47-.18.694-.03.102-.42 1.175-.87 2.45h2.17zM14.662 9.82c0-.306 0-.603.15-.91h-6.84c.15.306.15.603.15.91v8.763c0 .306 0 .603-.15.91h6.84c-.15-.306-.15-.603-.15-.91V9.82zm47.426-.072c-.02.766.57 1.4 1.33 1.43.75.02 1.38-.582 1.4-1.358V9.75c.01-.756-.57-1.38-1.3-1.39h-.05c-.73-.03-1.34.552-1.36 1.297-.02.03-.02.06-.01.092h0zm2.45 0c.02.613-.46 1.134-1.06 1.144-.6.02-1.1-.47-1.12-1.083V9.74c-.02-.592.43-1.093 1-1.113h.08c.6-.01 1.08.47 1.1 1.072v.05zm-.42.838h-.27l-.32-.592h-.35v.592h-.24V8.912h.6a.53.53 0 0 1 .51.541.56.56 0 0 1-.29.49l.35.643zm-.6-.838c.16.01.3-.112.3-.276s-.1-.306-.27-.306h-.36v.592h.33" fill="#fff"/></svg>
