<svg xmlns="http://www.w3.org/2000/svg" width="74" height="29" fill="none"><path d="M1.322 10.636v3.89l10.415-1.154v-4.21L1.322 10.636zm3.323 4.125v13.326h3.813V14.37l-3.813.393zm8.498-5.8v19.125h4.018V8.394l-4.018.57zm4.766-.675v4.4l5.802-.643V7.466l-5.802.82zm0 7.674v4.48l3.808-.21v-4.6l-3.808.33zm0 7.71v4.417h5.802v-4.594l-5.802.176zM38.714 5.336v22.752h5.267V4.6l-5.267.746zm6.25-.885v5.233l7.676-.85v-5.47L44.965 4.45zm0 9.17v5.33l5.03-.277v-5.488l-5.03.434zm0 9.227v5.24h7.676v-5.474l-7.675.233zM25.246 7.25v20.84h4.577V6.6l-4.577.648zm5.43 16.033v4.805h6.643V23.08l-6.643.202zM69.848 3.106C68.183 1.522 65.743.872 63.073 1.26v5.805c1.08-.06 1.957.344 2.347 1.157.616 1.283-.02 3.208-1.52 4.99-2.315 2.752-8.47 8.385-8.47 8.385l8.837-.293c5.4-5.314 7.34-8.54 7.687-12.565.183-2.13-.585-4.182-2.106-5.63zm2.417 24.98v-6.074l-17.925.544 17.925 5.53zm-17.925-5.53l.002 5.53h17.923l-17.925-5.53zm7.702-21.17c-5.207 1.117-7.764 4.976-7.47 11.273l5.552-.496c-.253-3.557.827-4.4 1.92-4.865l-.003-5.91z" fill="#bbb"/></svg>
