<svg xmlns="http://www.w3.org/2000/svg" width="24" height="24" fill="none"><path d="M15.914 11.496h0a4.41 4.41 0 0 0 .525-2.137 4.23 4.23 0 0 0-.535-2.105 4.24 4.24 0 0 0-1.4-1.5l-.44.692.44-.692C13.9 5.37 13.23 5.18 12.51 5.18s-1.387.194-1.992.58a4.14 4.14 0 0 0-1.41 1.51h0a4.28 4.28 0 0 0-.528 2.104 4.36 4.36 0 0 0 .526 2.127 4.19 4.19 0 0 0 1.41 1.532 3.62 3.62 0 0 0 1.997.59 3.56 3.56 0 0 0 2.005-.6 4.18 4.18 0 0 0 1.41-1.537zm-6.107-3.83h0zM19 19c0-.526-.152-1.078-.456-1.658s-.74-1.123-1.307-1.63-1.25-.918-2.05-1.236S13.5 14 12.5 14s-1.887.16-2.687.476-1.484.73-2.054 1.236-1.005 1.05-1.307 1.63S6 18.475 6 19" stroke="#fff"/><path d="M11 14h3l-1.5 5-1.5-5z" fill="#fff"/></svg>
