<svg xmlns="http://www.w3.org/2000/svg" width="25" height="24" fill="none" stroke="#fff"><path d="M16.414 11.496h0a4.41 4.41 0 0 0 .525-2.137 4.23 4.23 0 0 0-.535-2.105 4.24 4.24 0 0 0-1.4-1.5l-.44.692.44-.692A3.73 3.73 0 0 0 13 5.18c-.72 0-1.387.194-1.992.58a4.14 4.14 0 0 0-1.41 1.51h0a4.28 4.28 0 0 0-.528 2.104 4.36 4.36 0 0 0 .526 2.127 4.19 4.19 0 0 0 1.41 1.532 3.62 3.62 0 0 0 1.997.59 3.56 3.56 0 0 0 2.005-.6 4.18 4.18 0 0 0 1.41-1.537zm-6.107-3.83h0zM19.5 19c0-.526-.152-1.078-.456-1.658s-.74-1.123-1.307-1.63-1.25-.918-2.05-1.236S14 14 13 14s-1.887.16-2.687.476-1.484.73-2.054 1.236-1.005 1.05-1.307 1.63S6.5 18.475 6.5 19"/></svg>
