<svg width="17" height="15" viewBox="0 0 16 15" fill="none" xmlns="http://www.w3.org/2000/svg">
	<path
		d="M15.7407 6.72508C15.6722 6.61879 14.6536 5.08618 12.8116 3.86742L15.6472 1.01551L14.6372 0L0.729963 13.9845L1.73992 15L5.41547 11.3042C6.19615 11.5491 7.05683 11.7021 7.99964 11.7021C12.8594 11.7021 15.6186 7.69104 15.7336 7.51939L16 7.12583L15.7407 6.72508ZM7.99893 10.2657C7.50466 10.2657 7.03825 10.2097 6.59327 10.1192L7.95536 8.74964C8.13535 8.7992 8.3232 8.82936 8.51962 8.82936C9.70242 8.82936 10.6624 7.86556 10.6624 6.67481C10.6624 6.47802 10.6324 6.28842 10.5831 6.10744L11.7695 4.91454C12.978 5.6557 13.8258 6.58503 14.2436 7.10644C13.4673 8.03289 11.2566 10.2657 7.99893 10.2657Z"
		fill="#A3A3A3" />
	<path
		d="M2.72488 9.94686L3.76269 8.90333L8.78461 3.85378L10.0103 2.62137C9.38601 2.46409 8.7189 2.3657 7.99965 2.3657C3.13129 2.3657 0.372841 6.54697 0.25856 6.72508L0 7.12583L0.266417 7.51939C0.327843 7.61204 1.17923 8.84444 2.72488 9.94686Z"
		fill="#A3A3A3" />
</svg>