<svg width="17" height="15" viewBox="0 0 17 10" fill="none" xmlns="http://www.w3.org/2000/svg">
<path fill-rule="evenodd" clip-rule="evenodd" d="M0.5 5.10002C0.5 5.10002 3 9.80002 8.5 9.80002C14 9.80002 16.5 5.10002 16.5 5.10002C16.5 5.10002 14 0.400024 8.5 0.400024C3 0.400024 0.5 5.10002 0.5 5.10002ZM2.2495 5.10003C2.52102 5.4593 2.90752 5.91122 3.41132 6.36224C4.53366 7.367 6.20139 8.34002 8.5 8.34002C10.7986 8.34002 12.4663 7.367 13.5887 6.36224C14.0925 5.91122 14.479 5.4593 14.7505 5.10003C14.479 4.74075 14.0925 4.28883 13.5887 3.83781C12.4663 2.83305 10.7986 1.86002 8.5 1.86002C6.20139 1.86002 4.53366 2.83305 3.41132 3.83781C2.90752 4.28883 2.52102 4.74075 2.2495 5.10003Z" fill="#A3A3A3"/>
<path d="M10.5 5C10.5 6.10457 9.60457 7 8.5 7C7.39543 7 6.5 6.10457 6.5 5C6.5 3.89543 7.39543 3 8.5 3C9.60457 3 10.5 3.89543 10.5 5Z" fill="#A3A3A3"/>
</svg>
