<svg xmlns="http://www.w3.org/2000/svg" width="209" height="40" fill="none" fill-rule="evenodd"><path d="M36.726 38.825L20.57 18.827l15.15-17.683H25.686L4.093 28.022v10.803h8.126V27.25l2.978-3.504 11.525 15.08h10.003zm43.316 0L90.887 1.11h-9.13L75.12 28.343 67.934 1.11h-6.345l-7.252 27.233-6.7-27.233H38.54l10.9 37.682h8.61l6.637-25.882 6.67 25.882h8.676v.032zm32.05.675c11.525 0 19.942-8.134 19.942-19.484S123.648.5 112.09.5C100.6.5 92.214 8.634 92.214 19.984S100.6 39.5 112.09 39.5zm0-7.138c-7.025 0-11.525-5.37-11.525-12.378 0-7.073 4.5-12.378 11.525-12.378s11.6 5.305 11.6 12.378c0 7.01-4.565 12.378-11.6 12.378zm56.978 6.463l-8.58-14.34c4.11-.965 8.352-4.533 8.352-11.19 0-7.01-4.856-12.153-12.788-12.153h-17.837v37.682h8.125V25.418h5.957l7.478 13.407h9.292zm-14.245-20.48H146.3V8.184h8.514c3.27 0 5.698 1.93 5.698 5.08.032 3.183-2.428 5.08-5.698 5.08zm53.676 20.48l-16.187-19.998 15.15-17.683H197.46L183.993 17.99V1.11h-8.126v37.682h8.126V27.218l2.978-3.505 11.525 15.08H208.5v.032z" fill="#262626"/><path d="M12.22 8.952l-8.126 9.806V5.833H.5V.946h11.72v8.006z" fill="#ffa800"/></svg>