<svg xmlns="http://www.w3.org/2000/svg" viewBox="0 0 14 14" fill="#8a8a8a"><path d="M6.323 9.63c-.036.039-.07.08-.1.12a.6.6 0 00-.074.147.5.5 0 00-.05.144 1.055 1.055 0 000 .16.64.64 0 00.067.304c.075.2.238.359.446.432a.8.8 0 00.628 0 .732.732 0 00.446-.432.776.776 0 00.05-.304.787.787 0 00-.24-.568.846.846 0 00-1.168-.005zM6.909 3c-.886 0-1.705.459-2.148 1.2a.785.785 0 00.254 1.106A.843.843 0 006.19 5a.832.832 0 01.718-.4c.457 0 .827.358.827.8 0 .44-.37.8-.827.8a.813.813 0 00-.826.8v.8c0 .44.37.799.826.799.45.007.82-.351.827-.8v-.144c1.287-.452 1.95-1.828 1.484-3.074C8.867 3.64 7.945 3.01 6.91 3zM7 0C4.25-.033 1.597 1.735.55 4.276-.54 6.775.023 9.88 1.933 11.83c1.834 1.975 4.858 2.7 7.389 1.775 2.65-.905 4.6-3.528 4.673-6.334.143-2.755-1.536-5.474-4.042-6.614A6.954 6.954 0 007 .002zm0 1c2.665-.046 5.186 1.914 5.81 4.502.684 2.49-.472 5.325-2.7 6.63-2.275 1.433-5.487 1.052-7.356-.884C.815 9.376.438 6.16 1.869 3.88 2.926 2.11 4.937.98 7 1z"/></svg>
