<svg xmlns="http://www.w3.org/2000/svg" width="25" height="29" fill="none"><g clip-path="url(#A)"><path d="M23.79 22.6a15.85 15.85 0 0 1-1.532 2.803c-.806 1.17-1.465 1.978-1.973 2.427-.788.738-1.632 1.115-2.536 1.137-.65 0-1.432-.188-2.343-.57s-1.754-.567-2.522-.567c-.806 0-1.67.188-2.593.567s-1.67.58-2.24.6c-.867.038-1.73-.35-2.593-1.167-.55-.49-1.24-1.326-2.064-2.513C2.508 24.05 1.78 22.58 1.2 20.905c-.6-1.8-.916-3.562-.916-5.26 0-1.943.413-3.62 1.24-5.024.65-1.128 1.514-2.018 2.595-2.672a6.89 6.89 0 0 1 3.508-1.008c.69 0 1.59.217 2.714.643s1.837.644 2.152.644c.236 0 1.034-.253 2.387-.76 1.28-.47 2.36-.663 3.244-.586 2.397.197 4.198 1.16 5.396 2.89-2.144 1.322-3.204 3.174-3.183 5.55.02 1.85.68 3.4 1.975 4.613a6.48 6.48 0 0 0 1.973 1.317L23.79 22.6zM18.293.58c0 1.45-.52 2.804-1.558 4.058-1.252 1.5-2.767 2.35-4.41 2.215a4.58 4.58 0 0 1-.033-.55c0-1.392.596-2.882 1.653-4.1.528-.617 1.2-1.13 2.014-1.54C16.772.262 17.54.04 18.263 0a5.36 5.36 0 0 1 .03.58h0z" fill="#bbb"/></g><defs><clipPath id="A"><path fill="#fff" transform="translate(.294)" d="M0 0h24v29H0z"/></clipPath></defs></svg>
