<svg xmlns="http://www.w3.org/2000/svg" width="153" height="29" fill="none"><g clip-path="url(#A)" fill="#bbb"><path d="M15.048 0C6.9 0 .294 6.482.294 14.5S6.9 29 15.048 29s14.755-6.482 14.755-14.5S23.208 0 15.048 0zm-2.04 20.648l-1.088 3.14c-4.08-1.336-6.8-5.145-6.8-9.422s2.72-8.018 6.867-9.422l1.088 3.14c-2.72.87-4.488 3.408-4.488 6.214-.136 2.94 1.7 5.48 4.42 6.348zm5.03 3.207l-1.02-3.207a6.55 6.55 0 0 0 4.624-6.281 6.49 6.49 0 0 0-4.556-6.214l1.088-3.207c4.148 1.336 6.935 5.145 6.935 9.422 0 4.4-2.856 8.22-7.07 9.488zm132.114-6.75l1.63 1.938c-1.7 1.737-3.807 2.205-5.507 2.205-1.632 0-2.788-.267-3.808-.735-2.175-1.07-3.263-3.207-3.263-5.813 0-3.942 2.72-6.883 6.73-6.883 4.488 0 6.663 3.274 6.323 7.55h-10.2c.068 1.07.68 2.07 1.564 2.606.748.468 1.632.668 2.788.668a5.13 5.13 0 0 0 3.74-1.537zm-8.024-4.076h7.208c-.204-1.537-1.496-2.873-3.536-2.873-2.108 0-3.4 1.47-3.672 2.873zm-68.47 7.818h3.672l-5.78-6.615 5.7-6.214h-3.6l-4.352 4.945h-1.292V8.02h-2.788v12.76h2.788v-5.078h1.292l4.352 5.145zm11.967-10.5c-2.38 0-3.944 1.804-3.944 4.076s1.564 4.076 3.944 4.076 3.876-1.737 3.876-4.076c.068-2.205-1.428-4.076-3.876-4.076zm.476-2.606c3.672 0 6.4 2.806 6.4 6.682 0 3.8-2.652 6.75-6.4 6.75-1.768 0-3.196-.6-4.216-1.67v6.682H79.03v-18.1h2.788v1.537c1.088-1.27 2.516-1.87 4.284-1.87zm37.056.334H111.53v2.54h4.42V20.85h2.856V10.625h4.42v-2.54h-.068zm-59.902 0H51.56v2.54h4.42V20.85h2.856V10.625h4.42v-2.54zM48.16 14.5c0-2.405-1.7-4.143-4.08-4.143-2.312 0-4.08 1.737-4.08 4.143s1.7 4.143 4.08 4.143c2.312 0 4.08-1.737 4.08-4.143zm-11.083 0c0-3.8 2.992-6.682 7.003-6.682 3.944 0 7.003 2.873 7.003 6.682s-2.992 6.75-7.003 6.75c-3.944-.067-7.003-2.94-7.003-6.75zm99.883-6.415v12.763h-2.788v-8.22l-6.8 8.22h-2.244V8.086h2.788v8.22l6.8-8.22h2.244zm-27.4 12.763h-2.787V8.086h2.787V20.85zm-7.207-4.343c0-1.136-.816-1.938-1.904-1.938h-2.855V18.5h2.855c1.088 0 1.904-.87 1.904-2.005zm2.788 0c0 2.54-1.904 4.343-4.624 4.343h-5.7V8.086h2.788v4.143h3.195c2.72 0 4.352 1.737 4.352 4.276z"/></g><defs><clipPath id="A"><path fill="#fff" transform="translate(.294)" d="M0 0h152v29H0z"/></clipPath></defs></svg>
