<svg width="29" height="29" viewBox="0 0 29 29" fill="none" xmlns="http://www.w3.org/2000/svg">
<path fill-rule="evenodd" clip-rule="evenodd" d="M15.3848 28.5H14.2189C7.88866 28.5 4.72466 28.5 2.75906 26.5344C0.793457 24.5688 0.793457 21.4048 0.793457 15.0914V13.9086C0.793457 7.59408 0.793457 4.43121 2.75906 2.46561C4.72466 0.500006 7.88866 0.5 14.2189 0.5H15.3848C21.7139 0.5 24.8959 0.500006 26.8447 2.46561C28.7935 4.43121 28.7935 7.59632 28.7935 13.9086V15.2505C28.7936 21.4581 28.7937 24.5854 26.8447 26.5344C24.8791 28.5 21.7139 28.5 15.3848 28.5ZM5.52427 9.02851C5.67323 16.3074 9.50475 20.6877 15.8182 20.6877H16.1844V16.5236C18.4827 16.7565 20.1985 18.4724 20.8985 20.6877H24.2126C23.3132 17.3736 20.9814 15.5413 19.5321 14.8413C20.9814 13.9756 23.0299 11.8767 23.5126 9.02851H20.4987C19.8647 11.3436 17.9831 13.4424 16.1844 13.6418V9.02851H13.119V17.1071C11.2542 16.6445 8.82155 14.3754 8.72187 9.02851H5.52427Z" fill="#BBBBBB"/>
</svg>
